<svg xmlns="http://www.w3.org/2000/svg" xmlns:xlink="http://www.w3.org/1999/xlink" contentStyleType="text/css" data-diagram-type="DESCRIPTION" height="453px" preserveAspectRatio="none" style="width:1099px;height:453px;background:#FFFFFF;" version="1.1" viewBox="0 0 1099 453" width="1099px" zoomAndPan="magnify"><defs/><g><!--cluster Public App (job_app)--><g class="cluster" data-entity="Public App .job_app." data-source-line="4" data-uid="ent0004" id="cluster_Public App .job_app."><rect fill="none" height="93.52" rx="2.5" ry="2.5" style="stroke:#181818;stroke-width:1;" width="379" x="650" y="128.8"/><text fill="#000000" font-family="sans-serif" font-size="14" font-weight="bold" lengthAdjust="spacing" textLength="162.4971" x="758.2515" y="143.7951">Public App (job_app)</text></g><!--cluster Backoffice (job_Backoffice)--><g class="cluster" data-entity="Backoffice .job_Backoffice." data-source-line="9" data-uid="ent0009" id="cluster_Backoffice .job_Backoffice."><rect fill="none" height="92.36" rx="2.5" ry="2.5" style="stroke:#181818;stroke-width:1;" width="619" x="7" y="129.38"/><text fill="#000000" font-family="sans-serif" font-size="14" font-weight="bold" lengthAdjust="spacing" textLength="213.3496" x="209.8252" y="144.3751">Backoffice (job_Backoffice)</text></g><!--entity Browse Jobs--><g class="entity" data-entity="Browse Jobs" data-source-line="5" data-uid="ent0005" id="entity_Browse Jobs"><ellipse cx="728.003" cy="185.0566" fill="#F1F1F1" rx="61.733" ry="14.7466" style="stroke:#181818;stroke-width:0.5;"/><text fill="#000000" font-family="sans-serif" font-size="14" lengthAdjust="spacing" textLength="84.6084" x="685.6989" y="189.705">Browse Jobs</text></g><!--entity Apply / Upload Resume--><g class="entity" data-entity="Apply . Upload Resume" data-source-line="6" data-uid="ent0007" id="entity_Apply . Upload Resume"><ellipse cx="918.998" cy="185.0596" fill="#F1F1F1" rx="94.298" ry="21.2596" style="stroke:#181818;stroke-width:0.5;"/><text fill="#000000" font-family="sans-serif" font-size="14" lengthAdjust="spacing" textLength="163.4063" x="837.2949" y="189.708">Apply / Upload Resume</text></g><!--entity Manage Companies--><g class="entity" data-entity="Manage Companies" data-source-line="10" data-uid="ent0010" id="entity_Manage Companies"><ellipse cx="308.996" cy="185.0612" fill="#F1F1F1" rx="83.206" ry="19.0412" style="stroke:#181818;stroke-width:0.5;"/><text fill="#000000" font-family="sans-serif" font-size="14" lengthAdjust="spacing" textLength="138.1748" x="239.9086" y="189.7096">Manage Companies</text></g><!--entity Manage Job Vacancies--><g class="entity" data-entity="Manage Job Vacancies" data-source-line="11" data-uid="ent0012" id="entity_Manage Job Vacancies"><ellipse cx="519.005" cy="185.059" fill="#F1F1F1" rx="91.395" ry="20.679" style="stroke:#181818;stroke-width:0.5;"/><text fill="#000000" font-family="sans-serif" font-size="14" lengthAdjust="spacing" textLength="156.8916" x="440.5592" y="189.7074">Manage Job Vacancies</text></g><!--entity Review Applications--><g class="entity" data-entity="Review Applications" data-source-line="12" data-uid="ent0014" id="entity_Review Applications"><ellipse cx="106.9998" cy="185.056" fill="#F1F1F1" rx="84.2298" ry="19.246" style="stroke:#181818;stroke-width:0.5;"/><text fill="#000000" font-family="sans-serif" font-size="14" lengthAdjust="spacing" textLength="140.5469" x="36.7264" y="189.7044">Review Applications</text></g><!--entity S--><g class="entity" data-entity="S" data-source-line="1" data-uid="ent0002" id="entity_S"><ellipse cx="785.0005" cy="14" fill="#F1F1F1" rx="8" ry="8" style="stroke:#181818;stroke-width:0.5;"/><path d="M785.0005,22 L785.0005,49 M772.0005,30 L798.0005,30 M785.0005,49 L772.0005,64 M785.0005,49 L798.0005,64" fill="none" style="stroke:#181818;stroke-width:0.5;"/><text fill="#000000" font-family="sans-serif" font-size="14" lengthAdjust="spacing" textLength="74.6211" x="747.69" y="78.4951">Job Seeker</text></g><!--entity A--><g class="entity" data-entity="A" data-source-line="2" data-uid="ent0003" id="entity_A"><ellipse cx="309.0003" cy="14" fill="#F1F1F1" rx="8" ry="8" style="stroke:#181818;stroke-width:0.5;"/><path d="M309.0003,22 L309.0003,49 M296.0003,30 L322.0003,30 M309.0003,49 L296.0003,64 M309.0003,49 L322.0003,64" fill="none" style="stroke:#181818;stroke-width:0.5;"/><text fill="#000000" font-family="sans-serif" font-size="14" lengthAdjust="spacing" textLength="116.0605" x="250.97" y="78.4951">Employer/Admin</text></g><!--entity DB--><g class="entity" data-entity="DB" data-source-line="15" data-uid="ent0016" id="entity_DB"><path d="M469.56,295.32 C469.56,285.32 554.0034,285.32 554.0034,285.32 C554.0034,285.32 638.4467,285.32 638.4467,295.32 L638.4467,320.6169 C638.4467,330.6169 554.0034,330.6169 554.0034,330.6169 C554.0034,330.6169 469.56,330.6169 469.56,320.6169 L469.56,295.32" fill="#F1F1F1" style="stroke:#181818;stroke-width:0.5;"/><path d="M469.56,295.32 C469.56,305.32 554.0034,305.32 554.0034,305.32 C554.0034,305.32 638.4467,305.32 638.4467,295.32" fill="none" style="stroke:#181818;stroke-width:0.5;"/><text fill="#000000" font-family="sans-serif" font-size="14" lengthAdjust="spacing" textLength="148.8867" x="479.56" y="322.3151">DB (MySQL/Postgres)</text></g><!--entity Q--><g class="entity" data-entity="Q" data-source-line="16" data-uid="ent0017" id="entity_Q"><path d="M847.36,294.82 L990.6471,294.82 C995.6471,294.82 995.6471,307.9684 995.6471,307.9684 C995.6471,307.9684 995.6471,321.1169 990.6471,321.1169 L847.36,321.1169 C842.36,321.1169 842.36,307.9684 842.36,307.9684 C842.36,307.9684 842.36,294.82 847.36,294.82" fill="#F1F1F1" style="stroke:#181818;stroke-width:0.5;"/><path d="M990.6471,294.82 C985.6471,294.82 985.6471,307.9684 985.6471,307.9684 C985.6471,321.1169 990.6471,321.1169 990.6471,321.1169" fill="none" style="stroke:#181818;stroke-width:0.5;"/><text fill="#000000" font-family="sans-serif" font-size="14" lengthAdjust="spacing" textLength="133.2871" x="847.36" y="312.8151">Queue (Redis/SQS)</text></g><!--entity FS--><g class="entity" data-entity="FS" data-source-line="17" data-uid="ent0018" id="entity_FS"><rect fill="#F1F1F1" height="36.2969" rx="35" ry="35" style="stroke:#181818;stroke-width:0.5;" width="174.1777" x="584.91" y="409.2"/><text fill="#000000" font-family="sans-serif" font-size="14" lengthAdjust="spacing" textLength="154.1777" x="594.91" y="432.1951">File Storage (S3/local)</text></g><!--entity Background Workers--><g class="entity" data-entity="Background Workers" data-source-line="20" data-uid="ent0020" id="entity_Background Workers"><ellipse cx="919.0032" cy="427.3486" fill="#F1F1F1" rx="86.6932" ry="19.7386" style="stroke:#181818;stroke-width:0.5;"/><text fill="#000000" font-family="sans-serif" font-size="14" lengthAdjust="spacing" textLength="146.2139" x="845.8963" y="431.9971">Background Workers</text></g><!--link S to Browse Jobs--><g class="link" data-entity-1="S" data-entity-2="Browse Jobs" data-link-type="dependency" data-source-line="5" data-uid="lnk6" id="link_S_Browse Jobs"><path d="M769.73,82.01 C757.85,111.04 744.3215,144.1466 735.9815,164.5366" fill="none" id="S-to-Browse Jobs" style="stroke:#181818;stroke-width:1;"/><polygon fill="#181818" points="733.71,170.09,740.8195,163.2742,735.6029,165.4622,733.4149,160.2456,733.71,170.09" style="stroke:#181818;stroke-width:1;"/></g><!--link S to Apply / Upload Resume--><g class="link" data-entity-1="S" data-entity-2="Apply . Upload Resume" data-link-type="dependency" data-source-line="6" data-uid="lnk8" id="link_S_Apply . Upload Resume"><path d="M820.91,82.01 C846.18,108.3 874.8822,138.1542 895.4222,159.5242" fill="none" id="S-to-Apply / Upload Resume" style="stroke:#181818;stroke-width:1;"/><polygon fill="#181818" points="899.58,163.85,896.2272,154.5894,896.1152,160.2452,890.4594,160.1331,899.58,163.85" style="stroke:#181818;stroke-width:1;"/></g><!--link A to Manage Companies--><g class="link" data-entity-1="A" data-entity-2="Manage Companies" data-link-type="dependency" data-source-line="10" data-uid="lnk11" id="link_A_Manage Companies"><path d="M309,82.01 C309,109.11 309,138.59 309,159.78" fill="none" id="A-to-Manage Companies" style="stroke:#181818;stroke-width:1;"/><polygon fill="#181818" points="309,165.78,313,156.78,309,160.78,305,156.78,309,165.78" style="stroke:#181818;stroke-width:1;"/></g><!--link A to Manage Job Vacancies--><g class="link" data-entity-1="A" data-entity-2="Manage Job Vacancies" data-link-type="dependency" data-source-line="11" data-uid="lnk13" id="link_A_Manage Job Vacancies"><path d="M365.55,82.19 C405.88,108.96 453.4315,140.5312 485.3915,161.7512" fill="none" id="A-to-Manage Job Vacancies" style="stroke:#181818;stroke-width:1;"/><polygon fill="#181818" points="490.39,165.07,485.1047,156.7594,486.2245,162.3043,480.6796,163.4241,490.39,165.07" style="stroke:#181818;stroke-width:1;"/></g><!--link A to Review Applications--><g class="link" data-entity-1="A" data-entity-2="Review Applications" data-link-type="dependency" data-source-line="12" data-uid="lnk15" id="link_A_Review Applications"><path d="M254.6,82.19 C214.99,109.53 168.0576,141.9112 137.5376,162.9812" fill="none" id="A-to-Review Applications" style="stroke:#181818;stroke-width:1;"/><polygon fill="#181818" points="132.6,166.39,142.279,164.5686,136.7147,163.5494,137.7339,157.9851,132.6,166.39" style="stroke:#181818;stroke-width:1;"/></g><!--link Apply / Upload Resume to Q--><g class="link" data-entity-1="Apply . Upload Resume" data-entity-2="Q" data-link-type="dependency" data-source-line="19" data-uid="lnk19" id="link_Apply . Upload Resume_Q"><path d="M919,206.57 C919,231.76 919,267.72 919,288.51" fill="none" id="Apply / Upload Resume-to-Q" style="stroke:#181818;stroke-width:1;"/><polygon fill="#181818" points="919,294.51,923,285.51,919,289.51,915,285.51,919,294.51" style="stroke:#181818;stroke-width:1;"/><text fill="#000000" font-family="sans-serif" font-size="13" lengthAdjust="spacing" textLength="171.6724" x="920" y="251.3869">enqueue email/processing</text></g><!--link Q to Background Workers--><g class="link" data-entity-1="Q" data-entity-2="Background Workers" data-link-type="dependency" data-source-line="20" data-uid="lnk21" id="link_Q_Background Workers"><path d="M919,321.53 C919,342.11 919,377.14 919,401.31" fill="none" id="Q-to-Background Workers" style="stroke:#181818;stroke-width:1;"/><polygon fill="#181818" points="919,407.31,923,398.31,919,402.31,915,398.31,919,407.31" style="stroke:#181818;stroke-width:1;"/></g><!--link Manage Job Vacancies to DB--><g class="link" data-entity-1="Manage Job Vacancies" data-entity-2="DB" data-link-type="dependency" data-source-line="21" data-uid="lnk22" id="link_Manage Job Vacancies_DB"><path d="M524.78,206.02 C531.07,227.75 539.4314,256.6367 545.9514,279.1567" fill="none" id="Manage Job Vacancies-to-DB" style="stroke:#181818;stroke-width:1;"/><polygon fill="#181818" points="547.62,284.92,548.9593,275.1626,546.2295,280.1172,541.2749,277.3874,547.62,284.92" style="stroke:#181818;stroke-width:1;"/></g><!--link Browse Jobs to DB--><g class="link" data-entity-1="Browse Jobs" data-entity-2="DB" data-link-type="dependency" data-source-line="22" data-uid="lnk23" id="link_Browse Jobs_DB"><path d="M708.71,199.46 C678.98,220.12 626.567,256.5358 590.667,281.4858" fill="none" id="Browse Jobs-to-DB" style="stroke:#181818;stroke-width:1;"/><polygon fill="#181818" points="585.74,284.91,595.4132,283.0584,589.8458,282.0565,590.8477,276.4891,585.74,284.91" style="stroke:#181818;stroke-width:1;"/></g><!--link Review Applications to DB--><g class="link" data-entity-1="Review Applications" data-entity-2="DB" data-link-type="dependency" data-source-line="23" data-uid="lnk24" id="link_Review Applications_DB"><path d="M140.94,202.91 C160.24,211.99 185.07,222.83 208,230.32 C295.29,258.81 392.5061,279.0603 463.3161,291.8903" fill="none" id="Review Applications-to-DB" style="stroke:#181818;stroke-width:1;"/><polygon fill="#181818" points="469.22,292.96,461.0773,287.4195,464.3001,292.0686,459.651,295.2913,469.22,292.96" style="stroke:#181818;stroke-width:1;"/></g><!--link Apply / Upload Resume to FS--><g class="link" data-entity-1="Apply . Upload Resume" data-entity-2="FS" data-link-type="dependency" data-source-line="24" data-uid="lnk25" id="link_Apply . Upload Resume_FS"><path d="M898.97,206.06 C879.53,225.74 849.45,256.89 825,285.32 C791.07,324.76 791.94,343.11 753,377.61 C739.36,389.69 727.5711,397.5393 712.6411,405.8593" fill="none" id="Apply / Upload Resume-to-FS" style="stroke:#181818;stroke-width:1;"/><polygon fill="#181818" points="707.4,408.78,717.2088,407.893,711.7676,406.3461,713.3146,400.9048,707.4,408.78" style="stroke:#181818;stroke-width:1;"/></g><!--link DB to FS--><g class="link" data-entity-1="DB" data-entity-2="FS" data-link-type="association" data-source-line="26" data-uid="lnk26" id="link_DB_FS"><path d="M572.63,330.92 C584.62,344.7 600.76,362.65 616,377.61 C627.04,388.45 640.03,399.83 650.72,408.87" fill="none" id="DB-FS" style="stroke:#181818;stroke-width:1;stroke-dasharray:7,7;"/><text fill="#000000" font-family="sans-serif" font-size="13" lengthAdjust="spacing" textLength="131.0093" x="617" y="373.6769">stores file metadata</text></g><!--SRC=[VL4zJyCm4DtzAqwPsg7DmCQ0b50w892QMi28BiurCariOoTK5UA_SqwgLf4AK-nxb_TbL9tra3pQ4YJHddm2640A7ESFhMliaNoQLQqs0vO9uKbrQEg68DdqPQCLPCx1xCEMx-ZSF85l0I1XiRY3MUxj8H2mG9XVfhpV72655wR72hOK-fRcucV2dQFQszrEAngvB_UJH3QIFQF1ck3UjWwDfa5d2iLuhwZGg2cyfIzDX-YUGs2dhGc3YGexB95j9wkSIOwoU4etDdIrvz-75bQv-EofvurY-31LfKCg2pdYXGXSODHErfh3oDDj9c_InYfinhMr5EAFCWQ71Tm2cL69MjHDwhnL588sjIXE3NCjjRUzgU3DUdv2pd0z-B3FpYUFSXvUA-CC_kCnPk2Qbai-iTsOcmBiOkgMEenT_W80]--></g></svg>