<svg xmlns="http://www.w3.org/2000/svg" xmlns:xlink="http://www.w3.org/1999/xlink" contentStyleType="text/css" data-diagram-type="CLASS" height="646px" preserveAspectRatio="none" style="width:394px;height:646px;background:#FFFFFF;" version="1.1" viewBox="0 0 394 646" width="394px" zoomAndPan="magnify"><defs/><g><!--class User--><g class="entity" data-entity="User" data-source-line="3" data-uid="ent0002" id="entity_User"><rect fill="#F1F1F1" height="96.8906" rx="2.5" ry="2.5" style="stroke:#181818;stroke-width:0.5;" width="105.5088" x="281.53" y="180.19"/><ellipse cx="312.5854" cy="196.19" fill="#FFAAAA" rx="11" ry="11" style="stroke:#181818;stroke-width:1;"/><path d="M313.4292,202.94 L310.976,202.94 L310.976,192.69 L307.8354,192.69 L307.8354,190.5494 L316.5698,190.5494 L316.5698,192.69 L313.4292,192.69 L313.4292,202.94 Z " fill="#000000"/><text fill="#000000" font-family="sans-serif" font-size="14" lengthAdjust="spacing" textLength="37.8301" x="330.1533" y="201.0367">users</text><line style="stroke:#181818;stroke-width:0.5;" x1="282.53" x2="386.0388" y1="212.19" y2="212.19"/><g data-visibility-modifier="IE_MANDATORY"><ellipse cx="292.53" cy="225.8384" fill="#000000" rx="3" ry="3" style="stroke:#000000;stroke-width:1;"/></g><text fill="#000000" font-family="sans-serif" font-size="14" lengthAdjust="spacing" textLength="66.3086" x="301.53" y="229.1851">id : bigint</text><line style="stroke:#181818;stroke-width:1;" x1="282.53" x2="386.0388" y1="236.4869" y2="236.4869"/><text fill="#000000" font-family="sans-serif" font-size="14" lengthAdjust="spacing" textLength="93.5088" x="287.53" y="253.482">name : string</text><text fill="#000000" font-family="sans-serif" font-size="14" lengthAdjust="spacing" textLength="92.415" x="287.53" y="269.7789">email : string</text></g><!--class Company--><g class="entity" data-entity="Company" data-source-line="10" data-uid="ent0003" id="entity_Company"><rect fill="#F1F1F1" height="96.8906" rx="2.5" ry="2.5" style="stroke:#181818;stroke-width:0.5;" width="142.5664" x="7" y="7"/><ellipse cx="37.5386" cy="23" fill="#FFAAAA" rx="11" ry="11" style="stroke:#181818;stroke-width:1;"/><path d="M38.3824,29.75 L35.9292,29.75 L35.9292,19.5 L32.7886,19.5 L32.7886,17.3594 L41.523,17.3594 L41.523,19.5 L38.3824,19.5 L38.3824,29.75 Z " fill="#000000"/><text fill="#000000" font-family="sans-serif" font-size="14" lengthAdjust="spacing" textLength="76.0361" x="54.9917" y="27.8467">companies</text><line style="stroke:#181818;stroke-width:0.5;" x1="8" x2="148.5664" y1="39" y2="39"/><g data-visibility-modifier="IE_MANDATORY"><ellipse cx="18" cy="52.6484" fill="#000000" rx="3" ry="3" style="stroke:#000000;stroke-width:1;"/></g><text fill="#000000" font-family="sans-serif" font-size="14" lengthAdjust="spacing" textLength="66.3086" x="27" y="55.9951">id : bigint</text><text fill="#000000" font-family="sans-serif" font-size="14" lengthAdjust="spacing" textLength="93.5088" x="27" y="72.292">name : string</text><text fill="#000000" font-family="sans-serif" font-size="14" lengthAdjust="spacing" textLength="116.5664" x="27" y="88.5889">owner_id : bigint</text><line style="stroke:#181818;stroke-width:0.5;" x1="8" x2="148.5664" y1="95.8906" y2="95.8906"/></g><!--class JobCategory--><g class="entity" data-entity="JobCategory" data-source-line="16" data-uid="ent0004" id="entity_JobCategory"><rect fill="#F1F1F1" height="80.5938" rx="2.5" ry="2.5" style="stroke:#181818;stroke-width:0.5;" width="133.7256" x="184.42" y="15.15"/><ellipse cx="199.42" cy="31.15" fill="#FFAAAA" rx="11" ry="11" style="stroke:#181818;stroke-width:1;"/><path d="M200.2638,37.9 L197.8106,37.9 L197.8106,27.65 L194.67,27.65 L194.67,25.5094 L203.4044,25.5094 L203.4044,27.65 L200.2638,27.65 L200.2638,37.9 Z " fill="#000000"/><text fill="#000000" font-family="sans-serif" font-size="14" lengthAdjust="spacing" textLength="101.7256" x="213.42" y="35.9967">job_categories</text><line style="stroke:#181818;stroke-width:0.5;" x1="185.42" x2="317.1456" y1="47.15" y2="47.15"/><g data-visibility-modifier="IE_MANDATORY"><ellipse cx="195.42" cy="60.7984" fill="#000000" rx="3" ry="3" style="stroke:#000000;stroke-width:1;"/></g><text fill="#000000" font-family="sans-serif" font-size="14" lengthAdjust="spacing" textLength="66.3086" x="204.42" y="64.1451">id : bigint</text><text fill="#000000" font-family="sans-serif" font-size="14" lengthAdjust="spacing" textLength="93.5088" x="204.42" y="80.442">name : string</text><line style="stroke:#181818;stroke-width:0.5;" x1="185.42" x2="317.1456" y1="87.7437" y2="87.7437"/></g><!--class JobVacancy--><g class="entity" data-entity="JobVacancy" data-source-line="21" data-uid="ent0005" id="entity_JobVacancy"><rect fill="#F1F1F1" height="129.4844" rx="2.5" ry="2.5" style="stroke:#181818;stroke-width:0.5;" width="163.833" x="82.37" y="163.89"/><ellipse cx="112.6625" cy="179.89" fill="#FFAAAA" rx="11" ry="11" style="stroke:#181818;stroke-width:1;"/><path d="M113.5063,186.64 L111.0532,186.64 L111.0532,176.39 L107.9125,176.39 L107.9125,174.2494 L116.6469,174.2494 L116.6469,176.39 L113.5063,176.39 L113.5063,186.64 Z " fill="#000000"/><text fill="#000000" font-family="sans-serif" font-size="14" lengthAdjust="spacing" textLength="97.8496" x="130.0609" y="184.7367">job_vacancies</text><line style="stroke:#181818;stroke-width:0.5;" x1="83.37" x2="245.203" y1="195.89" y2="195.89"/><g data-visibility-modifier="IE_MANDATORY"><ellipse cx="93.37" cy="209.5384" fill="#000000" rx="3" ry="3" style="stroke:#000000;stroke-width:1;"/></g><text fill="#000000" font-family="sans-serif" font-size="14" lengthAdjust="spacing" textLength="66.3086" x="102.37" y="212.8851">id : bigint</text><text fill="#000000" font-family="sans-serif" font-size="14" lengthAdjust="spacing" textLength="137.833" x="102.37" y="229.182">company_id : bigint</text><text fill="#000000" font-family="sans-serif" font-size="14" lengthAdjust="spacing" textLength="135.1807" x="102.37" y="245.4789">category_id : bigint</text><text fill="#000000" font-family="sans-serif" font-size="14" lengthAdjust="spacing" textLength="81.1768" x="102.37" y="261.7757">title : string</text><text fill="#000000" font-family="sans-serif" font-size="14" lengthAdjust="spacing" textLength="119.335" x="102.37" y="278.0726">description : text</text><line style="stroke:#181818;stroke-width:0.5;" x1="83.37" x2="245.203" y1="285.3744" y2="285.3744"/></g><!--class JobApplication--><g class="entity" data-entity="JobApplication" data-source-line="29" data-uid="ent0006" id="entity_JobApplication"><rect fill="#F1F1F1" height="129.4844" rx="2.5" ry="2.5" style="stroke:#181818;stroke-width:0.5;" width="185.6465" x="95.46" y="353.38"/><ellipse cx="128.8133" cy="369.38" fill="#FFAAAA" rx="11" ry="11" style="stroke:#181818;stroke-width:1;"/><path d="M129.6571,376.13 L127.2039,376.13 L127.2039,365.88 L124.0633,365.88 L124.0633,363.7394 L132.7977,363.7394 L132.7977,365.88 L129.6571,365.88 L129.6571,376.13 Z " fill="#000000"/><text fill="#000000" font-family="sans-serif" font-size="14" lengthAdjust="spacing" textLength="112.8613" x="146.8918" y="374.2267">job_applications</text><line style="stroke:#181818;stroke-width:0.5;" x1="96.46" x2="280.1065" y1="385.38" y2="385.38"/><g data-visibility-modifier="IE_MANDATORY"><ellipse cx="106.46" cy="399.0284" fill="#000000" rx="3" ry="3" style="stroke:#000000;stroke-width:1;"/></g><text fill="#000000" font-family="sans-serif" font-size="14" lengthAdjust="spacing" textLength="66.3086" x="115.46" y="402.3751">id : bigint</text><text fill="#000000" font-family="sans-serif" font-size="14" lengthAdjust="spacing" textLength="159.6465" x="115.46" y="418.672">job_vacancy_id : bigint</text><text fill="#000000" font-family="sans-serif" font-size="14" lengthAdjust="spacing" textLength="103.8447" x="115.46" y="434.9689">user_id : bigint</text><text fill="#000000" font-family="sans-serif" font-size="14" lengthAdjust="spacing" textLength="126.0957" x="115.46" y="451.2657">resume_id : bigint</text><text fill="#000000" font-family="sans-serif" font-size="14" lengthAdjust="spacing" textLength="96.8242" x="115.46" y="467.5626">status : string</text><line style="stroke:#181818;stroke-width:0.5;" x1="96.46" x2="280.1065" y1="474.8644" y2="474.8644"/></g><!--class Resume--><g class="entity" data-entity="Resume" data-source-line="37" data-uid="ent0007" id="entity_Resume"><rect fill="#F1F1F1" height="96.8906" rx="2.5" ry="2.5" style="stroke:#181818;stroke-width:0.5;" width="139.9551" x="191.31" y="542.86"/><ellipse cx="227.8533" cy="558.86" fill="#FFAAAA" rx="11" ry="11" style="stroke:#181818;stroke-width:1;"/><path d="M228.6971,565.61 L226.2439,565.61 L226.2439,555.36 L223.1033,555.36 L223.1033,553.2194 L231.8377,553.2194 L231.8377,555.36 L228.6971,555.36 L228.6971,565.61 Z " fill="#000000"/><text fill="#000000" font-family="sans-serif" font-size="14" lengthAdjust="spacing" textLength="60.0811" x="246.6407" y="563.7067">resumes</text><line style="stroke:#181818;stroke-width:0.5;" x1="192.31" x2="330.2651" y1="574.86" y2="574.86"/><g data-visibility-modifier="IE_MANDATORY"><ellipse cx="202.31" cy="588.5084" fill="#000000" rx="3" ry="3" style="stroke:#000000;stroke-width:1;"/></g><text fill="#000000" font-family="sans-serif" font-size="14" lengthAdjust="spacing" textLength="66.3086" x="211.31" y="591.8551">id : bigint</text><text fill="#000000" font-family="sans-serif" font-size="14" lengthAdjust="spacing" textLength="103.8447" x="211.31" y="608.152">user_id : bigint</text><text fill="#000000" font-family="sans-serif" font-size="14" lengthAdjust="spacing" textLength="113.9551" x="211.31" y="624.4489">file_path : string</text><line style="stroke:#181818;stroke-width:0.5;" x1="192.31" x2="330.2651" y1="631.7506" y2="631.7506"/></g><!--link User to JobApplication--><g class="link" data-entity-1="User" data-entity-2="JobApplication" data-link-type="association" data-source-line="43" data-uid="lnk8" id="link_User_JobApplication"><path codeLine="43" d="M297.06,277.43 C279.15,300.43 257.42,328.33 238.11,353.13" fill="none" id="User-JobApplication" style="stroke:#181818;stroke-width:1;"/><text fill="#000000" font-family="sans-serif" font-size="13" lengthAdjust="spacing" textLength="8.271" x="283.5387" y="297.0704">1</text><text fill="#000000" font-family="sans-serif" font-size="13" lengthAdjust="spacing" textLength="6.5" x="237.259" y="342.2753">*</text></g><!--link User to Resume--><g class="link" data-entity-1="User" data-entity-2="Resume" data-link-type="association" data-source-line="44" data-uid="lnk9" id="link_User_Resume"><path codeLine="44" d="M330.24,277.28 C325.26,328.56 315.29,412.28 298.28,482.86 C293.5,502.71 286.54,524.07 279.94,542.48" fill="none" id="User-Resume" style="stroke:#181818;stroke-width:1;"/><text fill="#000000" font-family="sans-serif" font-size="13" lengthAdjust="spacing" textLength="8.271" x="321.1278" y="297.2516">1</text><text fill="#000000" font-family="sans-serif" font-size="13" lengthAdjust="spacing" textLength="6.5" x="276.1763" y="531.6355">*</text></g><!--link Company to JobVacancy--><g class="link" data-entity-1="Company" data-entity-2="JobVacancy" data-link-type="association" data-source-line="45" data-uid="lnk10" id="link_Company_JobVacancy"><path codeLine="45" d="M102.24,104.13 C111.48,122.53 122.2,143.86 132.1,163.57" fill="none" id="Company-JobVacancy" style="stroke:#181818;stroke-width:1;"/><text fill="#000000" font-family="sans-serif" font-size="13" lengthAdjust="spacing" textLength="8.271" x="97.0655" y="124.1072">1</text><text fill="#000000" font-family="sans-serif" font-size="13" lengthAdjust="spacing" textLength="6.5" x="122.2788" y="152.7077">*</text></g><!--link JobCategory to JobVacancy--><g class="link" data-entity-1="JobCategory" data-entity-2="JobVacancy" data-link-type="association" data-source-line="46" data-uid="lnk11" id="link_JobCategory_JobVacancy"><path codeLine="46" d="M231.1,96.15 C220.92,116.2 208.3,141.02 196.79,163.68" fill="none" id="JobCategory-JobVacancy" style="stroke:#181818;stroke-width:1;"/><text fill="#000000" font-family="sans-serif" font-size="13" lengthAdjust="spacing" textLength="8.271" x="219.2675" y="115.9099">1</text><text fill="#000000" font-family="sans-serif" font-size="13" lengthAdjust="spacing" textLength="6.5" x="194.0443" y="152.8297">*</text></g><!--link JobVacancy to JobApplication--><g class="link" data-entity-1="JobVacancy" data-entity-2="JobApplication" data-link-type="association" data-source-line="47" data-uid="lnk12" id="link_JobVacancy_JobApplication"><path codeLine="47" d="M172.48,293.63 C174.93,312.83 177.63,333.89 180.09,353.09" fill="none" id="JobVacancy-JobApplication" style="stroke:#181818;stroke-width:1;"/><text fill="#000000" font-family="sans-serif" font-size="13" lengthAdjust="spacing" textLength="8.271" x="164.9535" y="313.6336">1</text><text fill="#000000" font-family="sans-serif" font-size="13" lengthAdjust="spacing" textLength="6.5" x="172.8931" y="342.2309">*</text></g><!--link JobApplication to Resume--><g class="link" data-entity-1="JobApplication" data-entity-2="Resume" data-link-type="association" data-source-line="48" data-uid="lnk13" id="link_JobApplication_Resume"><path codeLine="48" d="M215.67,483.35 C224.05,502.99 233.11,524.23 240.93,542.57" fill="none" id="JobApplication-Resume" style="stroke:#181818;stroke-width:1;"/><text fill="#000000" font-family="sans-serif" font-size="13" lengthAdjust="spacing" textLength="6.5" x="212.2107" y="502.9238">*</text><text fill="#000000" font-family="sans-serif" font-size="13" lengthAdjust="spacing" textLength="8.271" x="229.5238" y="531.7381">1</text></g><!--SRC=[ZP9DRyCW38Rl-HKUkxHLSkYrgYfLbNhOSUfsZGXnCoO24P1jrRJ_FlAr15IavK3mY_tO1Z-KUEKIuK8BWIj9QqnBD6mDJ51Ze1E06Y2TI62_XzKbVJoVZ-vRm-6G94FWYq6T0cdTpv0rV2S06-0bxA3W5PVMsLdcbfwt0sCrbvMpiQPSpCBFn3kfkg7ovf2itt6COKEY-fIeywNF7_H95ITgiLAw0x-h8cU3-L_walHA6PLi0dtqLfmpT77B0tMi9f0jjyBhgRjypHlBbNIonI-_gMFJ2EvOxdWiXyvAhAAvwZ1zzuY1fD6qDGQYiTIsvixjFFVUhfGXB5R1dJnNBZ1lg7tpgDrm0TcIB2CR0dx3mU6GEXd7nmiQ7onPJ47iVDn6S_ecE0_djfso_m80]--></g></svg>